<?xml version="1.0" encoding="utf-8"?>
<svg version="1.1" xmlns:xlink="http://www.w3.org/1999/xlink" width="296px" height="32px" xmlns="http://www.w3.org/2000/svg">
  <defs>
    <mask fill="white" id="clip1">
      <path d="M 0 24  L 0 8  C 0 3.51999999999998  3.52000000000001 0  8 0  L 288 0  C 292.48 0  296 3.51999999999998  296 8  L 296 24  C 296 28.48  292.48 32  288 32  L 79 32  L 8 32  C 3.52000000000001 32  0 28.48  0 24  Z " fill-rule="evenodd" />
    </mask>
  </defs>
  <g transform="matrix(1 0 0 1 -455 -411 )">
    <path d="M 0 24  L 0 8  C 0 3.51999999999998  3.52000000000001 0  8 0  L 288 0  C 292.48 0  296 3.51999999999998  296 8  L 296 24  C 296 28.48  292.48 32  288 32  L 79 32  L 8 32  C 3.52000000000001 32  0 28.48  0 24  Z " fill-rule="nonzero" fill="#dee9ed" stroke="none" transform="matrix(1 0 0 1 455 411 )" />
    <path d="M 0 24  L 0 8  C 0 3.51999999999998  3.52000000000001 0  8 0  L 288 0  C 292.48 0  296 3.51999999999998  296 8  L 296 24  C 296 28.48  292.48 32  288 32  L 79 32  L 8 32  C 3.52000000000001 32  0 28.48  0 24  Z " stroke-width="2" stroke="#dee9ed" fill="none" transform="matrix(1 0 0 1 455 411 )" mask="url(#clip1)" />
  </g>
</svg>