<?xml version="1.0" encoding="utf-8"?>
<svg version="1.1" xmlns:xlink="http://www.w3.org/1999/xlink" width="49px" height="44px" xmlns="http://www.w3.org/2000/svg">
  <g transform="matrix(1 0 0 1 -1082 67 )">
    <path d="M 1106.5 -67  C 1120.22 -67  1131 -57.32  1131 -45  C 1131 -32.68  1120.22 -23  1106.5 -23  C 1092.78 -23  1082 -32.68  1082 -45  C 1082 -57.32  1092.78 -67  1106.5 -67  Z " fill-rule="nonzero" fill="#a1ccb9" stroke="none" />
    <path d="M 1106.5 -66.5  C 1119.94 -66.5  1130.5 -57.04  1130.5 -45  C 1130.5 -32.96  1119.94 -23.5  1106.5 -23.5  C 1093.06 -23.5  1082.5 -32.96  1082.5 -45  C 1082.5 -57.04  1093.06 -66.5  1106.5 -66.5  Z " stroke-width="1" stroke="#ffffff" fill="none" />
  </g>
</svg>