<?xml version="1.0" encoding="utf-8"?>
<svg version="1.1" xmlns:xlink="http://www.w3.org/1999/xlink" width="12px" height="7px" xmlns="http://www.w3.org/2000/svg">
  <g transform="matrix(1 0 0 1 -647 -180 )">
    <path d="M 11.7171717171717 5.23232323232323  C 11.9057239057239 5.34231200897867  12 5.47586980920314  12 5.63299663299663  C 12 5.79012345679012  11.9057239057239 5.92368125701459  11.7171717171717 6.03367003367003  L 10.3434343434343 6.83501683501683  C 10.1548821548822 6.94500561167228  9.92592592592593 7  9.65656565656566 7  C 9.38720538720539 7  9.15824915824916 6.94500561167228  8.96969696969697 6.83501683501683  L 6 5.1026936026936  L 3.03030303030303 6.83501683501683  C 2.84175084175084 6.94500561167228  2.61279461279461 7  2.34343434343434 7  C 2.07407407407407 7  1.84511784511785 6.94500561167228  1.65656565656566 6.83501683501683  L 0.282828282828283 6.03367003367003  C 0.0942760942760944 5.92368125701459  0 5.79012345679012  0 5.63299663299663  C 0 5.47586980920314  0.0942760942760944 5.34231200897867  0.282828282828283 5.23232323232323  L 3.25252525252525 3.5  L 0.282828282828283 1.76767676767677  C 0.0942760942760944 1.65768799102132  0 1.52413019079686  0 1.36700336700337  C 0 1.20987654320988  0.0942760942760944 1.07631874298541  0.282828282828283 0.966329966329967  L 1.65656565656566 0.164983164983165  C 1.84511784511785 0.0549943883277214  2.07407407407407 0  2.34343434343434 0  C 2.61279461279461 0  2.84175084175084 0.0549943883277214  3.03030303030303 0.164983164983165  L 6 1.8973063973064  L 8.96969696969697 0.164983164983165  C 9.15824915824916 0.0549943883277214  9.38720538720539 0  9.65656565656566 0  C 9.92592592592593 0  10.1548821548822 0.0549943883277214  10.3434343434343 0.164983164983165  L 11.7171717171717 0.966329966329967  C 11.9057239057239 1.07631874298541  12 1.20987654320988  12 1.36700336700337  C 12 1.52413019079686  11.9057239057239 1.65768799102132  11.7171717171717 1.76767676767677  L 8.74747474747475 3.5  L 11.7171717171717 5.23232323232323  Z " fill-rule="nonzero" fill="#8c8c8c" stroke="none" transform="matrix(1 0 0 1 647 180 )" />
  </g>
</svg>