<?xml version="1.0" encoding="utf-8"?>
<svg version="1.1" xmlns:xlink="http://www.w3.org/1999/xlink" width="16px" height="14px" xmlns="http://www.w3.org/2000/svg">
  <g transform="matrix(1 0 0 1 -473 -182 )">
    <path d="M 9.8125 8.5859375  C 10.6554487179487 7.84835737179487  11.0769230769231 6.96073717948718  11.0769230769231 5.92307692307692  C 11.0769230769231 4.88541666666667  10.6554487179487 3.99779647435897  9.8125 3.26021634615385  C 8.96955128205128 2.52263621794872  7.95512820512821 2.15384615384615  6.76923076923077 2.15384615384615  C 5.58333333333333 2.15384615384615  4.56891025641026 2.52263621794872  3.72596153846154 3.26021634615385  C 2.88301282051282 3.99779647435897  2.46153846153846 4.88541666666667  2.46153846153846 5.92307692307692  C 2.46153846153846 6.96073717948718  2.88301282051282 7.84835737179487  3.72596153846154 8.5859375  C 4.56891025641026 9.32351762820513  5.58333333333333 9.69230769230769  6.76923076923077 9.69230769230769  C 7.95512820512821 9.69230769230769  8.96955128205128 9.32351762820513  9.8125 8.5859375  Z M 15.6442307692308 12.1658653846154  C 15.8814102564103 12.3733974358974  16 12.6258012820513  16 12.9230769230769  C 16 13.2147435897436  15.8782051282051 13.4671474358974  15.6346153846154 13.6802884615385  C 15.3910256410256 13.8934294871795  15.1025641025641 14  14.7692307692308 14  C 14.4230769230769 14  14.1346153846154 13.8934294871795  13.9038461538462 13.6802884615385  L 10.6057692307692 10.8028846153846  C 9.45833333333333 11.4983974358974  8.17948717948718 11.8461538461538  6.76923076923077 11.8461538461538  C 5.8525641025641 11.8461538461538  4.97596153846154 11.6905048076923  4.13942307692308 11.3792067307692  C 3.30288461538462 11.0679086538462  2.58173076923077 10.6472355769231  1.97596153846154 10.1171875  C 1.37019230769231 9.58713942307692  0.889423076923077 8.95612980769231  0.533653846153846 8.22415865384615  C 0.177884615384615 7.4921875  0 6.72516025641026  0 5.92307692307692  C 0 5.12099358974359  0.177884615384615 4.35396634615385  0.533653846153846 3.62199519230769  C 0.889423076923077 2.89002403846154  1.37019230769231 2.25901442307692  1.97596153846154 1.72896634615385  C 2.58173076923077 1.19891826923077  3.30288461538462 0.778245192307692  4.13942307692308 0.466947115384616  C 4.97596153846154 0.155649038461538  5.8525641025641 0  6.76923076923077 0  C 7.68589743589744 0  8.5625 0.155649038461538  9.39903846153846 0.466947115384616  C 10.2355769230769 0.778245192307692  10.9567307692308 1.19891826923077  11.5625 1.72896634615385  C 12.1682692307692 2.25901442307692  12.6490384615385 2.89002403846154  13.0048076923077 3.62199519230769  C 13.3605769230769 4.35396634615385  13.5384615384615 5.12099358974359  13.5384615384615 5.92307692307692  C 13.5384615384615 7.15705128205128  13.1410256410256 8.27604166666667  12.3461538461538 9.28004807692308  L 15.6442307692308 12.1658653846154  Z " fill-rule="nonzero" fill="#7f7f7f" stroke="none" transform="matrix(1 0 0 1 473 182 )" />
  </g>
</svg>