<?xml version="1.0" encoding="utf-8"?>
<svg version="1.1" xmlns:xlink="http://www.w3.org/1999/xlink" width="146px" height="31px" xmlns="http://www.w3.org/2000/svg">
  <defs>
    <mask fill="white" id="clip31">
      <path d="M 0 26  L 0 5  C 0 2.19999999999999  2.19999999999999 0  5 0  L 119.333333333333 0  L 141 0  C 143.8 0  146 2.19999999999999  146 5  L 146 26  C 146 28.8  143.8 31  141 31  L 5 31  C 2.19999999999999 31  0 28.8  0 26  Z " fill-rule="evenodd" />
    </mask>
  </defs>
  <g transform="matrix(1 0 0 1 -294 -330 )">
    <path d="M 0 26  L 0 5  C 0 2.19999999999999  2.19999999999999 0  5 0  L 119.333333333333 0  L 141 0  C 143.8 0  146 2.19999999999999  146 5  L 146 26  C 146 28.8  143.8 31  141 31  L 5 31  C 2.19999999999999 31  0 28.8  0 26  Z " fill-rule="nonzero" fill="#5cb099" stroke="none" transform="matrix(1 0 0 1 294 330 )" />
    <path d="M 0 26  L 0 5  C 0 2.19999999999999  2.19999999999999 0  5 0  L 119.333333333333 0  L 141 0  C 143.8 0  146 2.19999999999999  146 5  L 146 26  C 146 28.8  143.8 31  141 31  L 5 31  C 2.19999999999999 31  0 28.8  0 26  Z " stroke-width="2" stroke="#ffffff" fill="none" stroke-opacity="0.662745098039216" transform="matrix(1 0 0 1 294 330 )" mask="url(#clip31)" />
  </g>
</svg>