<?xml version="1.0" encoding="utf-8"?>
<svg version="1.1" xmlns:xlink="http://www.w3.org/1999/xlink" width="63px" height="25px" xmlns="http://www.w3.org/2000/svg">
  <defs>
    <mask fill="white" id="clip32">
      <path d="M 0 20  L 0 5  C 0 2.19999999999999  2.20000000000005 0  5 0  L 39.6190476190476 0  L 58 0  C 60.8 0  63 2.19999999999999  63 5  L 63 20  C 63 22.8  60.8 25  58 25  L 5 25  C 2.20000000000005 25  0 22.8  0 20  Z " fill-rule="evenodd" />
    </mask>
  </defs>
  <g transform="matrix(1 0 0 1 -380 -425 )">
    <path d="M 0 20  L 0 5  C 0 2.19999999999999  2.20000000000005 0  5 0  L 39.6190476190476 0  L 58 0  C 60.8 0  63 2.19999999999999  63 5  L 63 20  C 63 22.8  60.8 25  58 25  L 5 25  C 2.20000000000005 25  0 22.8  0 20  Z " fill-rule="nonzero" fill="#d7d7d7" stroke="none" transform="matrix(1 0 0 1 380 425 )" />
    <path d="M 0 20  L 0 5  C 0 2.19999999999999  2.20000000000005 0  5 0  L 39.6190476190476 0  L 58 0  C 60.8 0  63 2.19999999999999  63 5  L 63 20  C 63 22.8  60.8 25  58 25  L 5 25  C 2.20000000000005 25  0 22.8  0 20  Z " stroke-width="2" stroke="#ffffff" fill="none" transform="matrix(1 0 0 1 380 425 )" mask="url(#clip32)" />
  </g>
</svg>