<?xml version="1.0" encoding="utf-8"?>
<svg version="1.1" xmlns:xlink="http://www.w3.org/1999/xlink" width="52px" height="61px" xmlns="http://www.w3.org/2000/svg">
  <g transform="matrix(1 0 0 1 -336 -768 )">
    <path d="M 362 768.5  C 376.28 768.5  387.5 781.7  387.5 798.5  C 387.5 815.3  376.28 828.5  362 828.5  C 347.72 828.5  336.5 815.3  336.5 798.5  C 336.5 781.7  347.72 768.5  362 768.5  Z " fill-rule="nonzero" fill="#f2f2f2" stroke="none" fill-opacity="0.996078431372549" />
    <path d="M 362 768.5  C 376.28 768.5  387.5 781.7  387.5 798.5  C 387.5 815.3  376.28 828.5  362 828.5  C 347.72 828.5  336.5 815.3  336.5 798.5  C 336.5 781.7  347.72 768.5  362 768.5  Z " stroke-width="1" stroke="#f2f2f2" fill="none" stroke-opacity="0.996078431372549" />
  </g>
</svg>