<?xml version="1.0" encoding="utf-8"?>
<svg version="1.1" xmlns:xlink="http://www.w3.org/1999/xlink" width="63px" height="20px" xmlns="http://www.w3.org/2000/svg">
  <g transform="matrix(1 0 0 1 -373 -664 )">
    <path d="M 374 674  A 9 9 0 0 1 383 665 L 426 665  A 9 9 0 0 1 435 674 A 9 9 0 0 1 426 683 L 383 683  A 9 9 0 0 1 374 674 Z " fill-rule="nonzero" fill="#d7d7d7" stroke="none" />
    <path d="M 373.5 674  A 9.5 9.5 0 0 1 383 664.5 L 426 664.5  A 9.5 9.5 0 0 1 435.5 674 A 9.5 9.5 0 0 1 426 683.5 L 383 683.5  A 9.5 9.5 0 0 1 373.5 674 Z " stroke-width="1" stroke="#f2f2f2" fill="none" stroke-opacity="0.996078431372549" />
  </g>
</svg>