<?xml version="1.0" encoding="utf-8"?>
<svg version="1.1" xmlns:xlink="http://www.w3.org/1999/xlink" width="6px" height="6px" xmlns="http://www.w3.org/2000/svg">
  <g transform="matrix(1 0 0 1 -486 -402 )">
    <path d="M 1.01386138613861 5.49306930693069  L 1.43762376237624 5.49306930693069  L 1.7980198019802 5.13267326732673  L 0.867326732673267 4.2019801980198  L 0.506930693069307 4.56237623762376  L 0.506930693069307 4.98613861386139  L 1.01386138613861 4.98613861386139  L 1.01386138613861 5.49306930693069  Z M 3.48118811881188 1.88514851485149  C 3.4996699669967 1.86666666666667  3.50891089108911 1.84422442244224  3.50891089108911 1.81782178217822  C 3.50891089108911 1.75973597359736  3.47986798679868 1.73069306930693  3.42178217821782 1.73069306930693  C 3.3953795379538 1.73069306930693  3.37293729372937 1.73993399339934  3.35445544554455 1.75841584158416  L 1.20792079207921 3.90495049504951  C 1.18943894389439 3.92343234323432  1.18019801980198 3.94587458745875  1.18019801980198 3.97227722772277  C 1.18019801980198 4.03036303630363  1.20924092409241 4.05940594059406  1.26732673267327 4.05940594059406  C 1.29372937293729 4.05940594059406  1.31617161716172 4.05016501650165  1.33465346534653 4.03168316831683  L 3.48118811881188 1.88514851485149  Z M 0 4.35247524752475  L 3.2950495049505 1.05742574257426  L 4.94257425742574 2.7049504950495  L 1.64752475247525 6  L 0 6  L 0 4.35247524752475  Z M 5.85346534653465 1.07722772277228  C 5.95115511551155 1.18019801980198  6 1.3003300330033  6 1.43762376237624  C 6 1.57755775577558  5.95115511551155 1.6963696369637  5.85346534653465 1.79405940594059  L 5.1960396039604 2.45148514851485  L 3.54851485148515 0.803960396039604  L 4.20594059405941 0.15049504950495  C 4.3009900990099 0.0501650165016496  4.41980198019802 0  4.56237623762376 0  C 4.7023102310231 0  4.82244224422442 0.0501650165016496  4.92277227722772 0.15049504950495  L 5.85346534653465 1.07722772277228  Z " fill-rule="nonzero" fill="#000000" stroke="none" transform="matrix(1 0 0 1 486 402 )" />
  </g>
</svg>