<?xml version="1.0" encoding="utf-8"?>
<svg version="1.1" xmlns:xlink="http://www.w3.org/1999/xlink" width="8px" height="7px" xmlns="http://www.w3.org/2000/svg">
  <g transform="matrix(1 0 0 1 -649 -811 )">
    <path d="M 1.234375 1.53545673076923  C 1.30034722222222 1.48217147435897  1.33333333333333 1.41907051282051  1.33333333333333 1.34615384615385  C 1.33333333333333 1.27323717948718  1.30034722222222 1.21013621794872  1.234375 1.15685096153846  C 1.16840277777778 1.1035657051282  1.09027777777778 1.07692307692308  1 1.07692307692308  C 0.909722222222222 1.07692307692308  0.831597222222222 1.1035657051282  0.765625 1.15685096153846  C 0.699652777777778 1.21013621794872  0.666666666666667 1.27323717948718  0.666666666666667 1.34615384615385  C 0.666666666666667 1.41907051282051  0.699652777777778 1.48217147435897  0.765625 1.53545673076923  C 0.831597222222222 1.58874198717949  0.909722222222222 1.61538461538461  1 1.61538461538461  C 1.09027777777778 1.61538461538461  1.16840277777778 1.58874198717949  1.234375 1.53545673076923  Z M 7.13020833333333 4.14573317307692  C 7.265625 4.03776041666667  7.33333333333333 3.91225961538462  7.33333333333333 3.76923076923077  C 7.33333333333333 3.67107371794872  7.29600694444445 3.55749198717949  7.22135416666667 3.42848557692308  C 7.14670138888889 3.29947916666667  7.05381944444445 3.23357371794872  6.94270833333333 3.23076923076923  C 6.99479166666667 3.18309294871795  7.03819444444445 3.11648637820513  7.07291666666667 3.03094951923077  C 7.10763888888889 2.94541266025641  7.125 2.86758814102564  7.125 2.79747596153846  C 7.125 2.60396634615385  7.03298611111111 2.43709935897436  6.84895833333333 2.296875  C 6.91145833333333 2.2099358974359  6.94270833333333 2.11318108974359  6.94270833333333 2.00661057692308  C 6.94270833333333 1.90284455128205  6.91232638888889 1.7997796474359  6.8515625 1.69741586538461  C 6.79079861111111 1.59505208333333  6.70833333333333 1.52143429487179  6.60416666666667 1.4765625  C 6.62152777777778 1.39242788461539  6.63020833333333 1.31390224358974  6.63020833333333 1.24098557692308  C 6.63020833333333 1.00260416666667  6.54513888888889 0.825921474358974  6.375 0.7109375  C 6.20486111111111 0.595953525641025  5.96875 0.538461538461538  5.66666666666667 0.538461538461538  L 5 0.538461538461538  C 4.54513888888889 0.538461538461538  3.95138888888889 0.64082532051282  3.21875 0.845552884615385  C 3.20138888888889 0.851161858974358  3.15104166666667 0.865885416666666  3.06770833333333 0.889723557692308  C 2.984375 0.913561698717948  2.92274305555556 0.931089743589743  2.8828125 0.942307692307692  C 2.84288194444444 0.953525641025641  2.78211805555556 0.969651442307692  2.70052083333333 0.990685096153846  C 2.61892361111111 1.01171875  2.55295138888889 1.02714342948718  2.50260416666667 1.03695913461539  C 2.45225694444444 1.04677483974359  2.39496527777778 1.05588942307692  2.33072916666667 1.06430288461539  C 2.26649305555556 1.07271634615385  2.21180555555556 1.07692307692308  2.16666666666667 1.07692307692308  L 2 1.07692307692308  L 2 3.76923076923077  L 2.16666666666667 3.76923076923077  C 2.22222222222222 3.76923076923077  2.28385416666667 3.78185096153846  2.3515625 3.80709134615385  C 2.41927083333333 3.83233173076923  2.48871527777778 3.87019230769231  2.55989583333333 3.92067307692308  C 2.63107638888889 3.97115384615385  2.69791666666667 4.02093349358974  2.76041666666667 4.07001201923077  C 2.82291666666667 4.11909054487179  2.89236111111111 4.18078926282051  2.96875 4.25510817307692  C 3.04513888888889 4.32942708333333  3.10503472222222 4.38902243589744  3.1484375 4.43389423076923  C 3.19184027777778 4.47876602564102  3.24652777777778 4.53625801282051  3.3125 4.60637019230769  C 3.37847222222222 4.67648237179487  3.41840277777778 4.71854967948718  3.43229166666667 4.73257211538462  C 3.62326388888889 4.92327724358974  3.75694444444444 5.05088141025641  3.83333333333333 5.11538461538462  C 3.97569444444445 5.23597756410256  4.07899305555556 5.38952323717949  4.14322916666667 5.57602163461538  C 4.20746527777778 5.76252003205128  4.26041666666667 5.9385016025641  4.30208333333333 6.10396634615385  C 4.34375 6.26943108974359  4.40972222222222 6.3886217948718  4.5 6.46153846153846  C 4.83333333333333 6.46153846153846  5.05555555555556 6.39563301282051  5.16666666666667 6.26382211538462  C 5.27777777777778 6.13201121794872  5.33333333333333 5.9286858974359  5.33333333333333 5.65384615384615  C 5.33333333333333 5.48838141025641  5.25 5.26332131410256  5.08333333333333 4.97866586538462  C 4.91666666666667 4.69401041666667  4.83333333333333 4.47035256410256  4.83333333333333 4.30769230769231  L 6.66666666666667 4.30769230769231  C 6.84027777777778 4.30769230769231  6.99479166666667 4.25370592948718  7.13020833333333 4.14573317307692  Z M 7.74479166666667 3.08774038461539  C 7.91493055555555 3.29246794871795  8 3.52103365384615  8 3.7734375  C 8 4.06229967948718  7.86805555555555 4.31330128205128  7.60416666666667 4.52644230769231  C 7.34027777777778 4.73958333333333  7.02777777777778 4.84615384615385  6.66666666666667 4.84615384615385  L 5.75 4.84615384615385  C 5.91666666666667 5.12379807692308  6 5.39302884615385  6 5.65384615384615  C 6 5.98477564102564  5.93923611111111 6.24559294871795  5.81770833333333 6.43629807692308  C 5.69618055555556 6.62980769230769  5.51909722222222 6.77213541666667  5.28645833333333 6.86328125  C 5.05381944444445 6.95442708333333  4.79166666666667 7  4.5 7  C 4.32291666666667 7  4.16666666666667 6.94811698717949  4.03125 6.84435096153846  C 3.91319444444444 6.75180288461539  3.81944444444444 6.63681891025641  3.75 6.49939903846154  C 3.68055555555556 6.36197916666667  3.63628472222222 6.23507612179487  3.6171875 6.11868990384615  C 3.59809027777778 6.00230368589744  3.56770833333333 5.8838141025641  3.52604166666667 5.76322115384615  C 3.484375 5.64262820512821  3.43055555555556 5.55288461538462  3.36458333333333 5.49399038461538  C 3.19791666666667 5.35376602564103  3.01215277777778 5.17568108974359  2.80729166666667 4.95973557692308  C 2.45659722222222 4.59234775641026  2.21875 4.375  2.09375 4.30769230769231  L 0.666666666666667 4.30769230769231  C 0.482638888888889 4.30769230769231  0.325520833333333 4.25510817307692  0.1953125 4.14993990384615  C 0.0651041666666667 4.04477163461538  0 3.91786858974359  0 3.76923076923077  L 0 1.07692307692308  C 0 0.928285256410256  0.0651041666666667 0.801382211538462  0.1953125 0.696213942307692  C 0.325520833333333 0.591045673076923  0.482638888888889 0.538461538461538  0.666666666666667 0.538461538461538  L 2.16666666666667 0.538461538461538  C 2.24305555555556 0.538461538461538  2.48263888888889 0.482371794871794  2.88541666666667 0.370192307692308  C 3.32986111111111 0.246794871794871  3.71701388888889 0.154246794871794  4.046875 0.092548076923077  C 4.37673611111111 0.0308493589743585  4.72395833333333 0  5.08854166666667 0  L 5.671875 0  C 6.15798611111111 0  6.55121527777778 0.110777243589743  6.8515625 0.332331730769231  C 7.15190972222222 0.553886217948717  7.30034722222222 0.856770833333333  7.296875 1.24098557692308  L 7.296875 1.26201923076923  C 7.50520833333333 1.47796474358974  7.609375 1.7275641025641  7.609375 2.01081730769231  C 7.609375 2.07251602564102  7.60416666666667 2.1328125  7.59375 2.19170673076923  C 7.72569444444445 2.37960737179487  7.79166666666667 2.58153044871795  7.79166666666667 2.79747596153846  C 7.79166666666667 2.8984375  7.77604166666667 2.99519230769231  7.74479166666667 3.08774038461539  Z " fill-rule="nonzero" fill="#555555" stroke="none" transform="matrix(1 0 0 1 649 811 )" />
  </g>
</svg>