<?xml version="1.0" encoding="utf-8"?>
<svg version="1.1" xmlns:xlink="http://www.w3.org/1999/xlink" width="52px" height="61px" xmlns="http://www.w3.org/2000/svg">
  <g transform="matrix(1 0 0 1 -341 -664 )">
    <path d="M 367 664.5  C 381.28 664.5  392.5 677.7  392.5 694.5  C 392.5 711.3  381.28 724.5  367 724.5  C 352.72 724.5  341.5 711.3  341.5 694.5  C 341.5 677.7  352.72 664.5  367 664.5  Z " fill-rule="nonzero" fill="#f2f2f2" stroke="none" fill-opacity="0.996078431372549" />
    <path d="M 367 664.5  C 381.28 664.5  392.5 677.7  392.5 694.5  C 392.5 711.3  381.28 724.5  367 724.5  C 352.72 724.5  341.5 711.3  341.5 694.5  C 341.5 677.7  352.72 664.5  367 664.5  Z " stroke-width="1" stroke="#f2f2f2" fill="none" stroke-opacity="0.996078431372549" />
  </g>
</svg>