<?xml version="1.0" encoding="utf-8"?>
<svg version="1.1" xmlns:xlink="http://www.w3.org/1999/xlink" width="32px" height="33px" xmlns="http://www.w3.org/2000/svg">
  <g transform="matrix(1 0 0 1 -367 -685 )">
    <path d="M 383 685.5  C 391.68 685.5  398.5 692.54  398.5 701.5  C 398.5 710.46  391.68 717.5  383 717.5  C 374.32 717.5  367.5 710.46  367.5 701.5  C 367.5 692.54  374.32 685.5  383 685.5  Z " fill-rule="nonzero" fill="#f2f2f2" stroke="none" fill-opacity="0.996078431372549" />
    <path d="M 383 685.5  C 391.68 685.5  398.5 692.54  398.5 701.5  C 398.5 710.46  391.68 717.5  383 717.5  C 374.32 717.5  367.5 710.46  367.5 701.5  C 367.5 692.54  374.32 685.5  383 685.5  Z " stroke-width="1" stroke="#f2f2f2" fill="none" stroke-opacity="0.996078431372549" />
  </g>
</svg>