<?xml version="1.0" encoding="utf-8"?>
<svg version="1.1" xmlns:xlink="http://www.w3.org/1999/xlink" width="63px" height="20px" xmlns="http://www.w3.org/2000/svg">
  <g transform="matrix(1 0 0 1 -581 -571 )">
    <path d="M 582 581  A 9 9 0 0 1 591 572 L 634 572  A 9 9 0 0 1 643 581 A 9 9 0 0 1 634 590 L 591 590  A 9 9 0 0 1 582 581 Z " fill-rule="nonzero" fill="#a1ccb9" stroke="none" />
    <path d="M 581.5 581  A 9.5 9.5 0 0 1 591 571.5 L 634 571.5  A 9.5 9.5 0 0 1 643.5 581 A 9.5 9.5 0 0 1 634 590.5 L 591 590.5  A 9.5 9.5 0 0 1 581.5 581 Z " stroke-width="1" stroke="#f2f2f2" fill="none" stroke-opacity="0.996078431372549" />
  </g>
</svg>