<?xml version="1.0" encoding="utf-8"?>
<svg version="1.1" xmlns:xlink="http://www.w3.org/1999/xlink" width="30px" height="9px" xmlns="http://www.w3.org/2000/svg">
  <g transform="matrix(1 0 0 1 -407 -405 )">
    <path d="M 29.443359375 0.296875  C 29.814453125 0.494791666666666  30 0.729166666666664  30 1  C 30 1.27083333333333  29.814453125 1.50520833333333  29.443359375 1.703125  L 16.318359375 8.703125  C 15.947265625 8.90104166666667  15.5078125 9  15 9  C 14.4921875 9  14.052734375 8.90104166666667  13.681640625 8.703125  L 0.556640625 1.703125  C 0.185546875 1.50520833333333  0 1.27083333333333  0 1  C 0 0.729166666666664  0.185546875 0.494791666666666  0.556640625 0.296875  C 0.927734375 0.0989583333333321  1.3671875 0  1.875 0  L 28.125 0  C 28.6328125 0  29.072265625 0.0989583333333321  29.443359375 0.296875  Z " fill-rule="nonzero" fill="#000000" stroke="none" transform="matrix(1 0 0 1 407 405 )" />
  </g>
</svg>