<?xml version="1.0" encoding="utf-8"?>
<svg version="1.1" xmlns:xlink="http://www.w3.org/1999/xlink" width="8px" height="8px" xmlns="http://www.w3.org/2000/svg">
  <g transform="matrix(1 0 0 1 -712 -600 )">
    <path d="M 1.234375 1.75480769230769  C 1.30034722222222 1.69391025641026  1.33333333333333 1.62179487179487  1.33333333333333 1.53846153846154  C 1.33333333333333 1.4551282051282  1.30034722222222 1.38301282051282  1.234375 1.32211538461539  C 1.16840277777778 1.26121794871795  1.09027777777778 1.23076923076923  1 1.23076923076923  C 0.909722222222222 1.23076923076923  0.831597222222222 1.26121794871795  0.765625 1.32211538461539  C 0.699652777777778 1.38301282051282  0.666666666666667 1.4551282051282  0.666666666666667 1.53846153846154  C 0.666666666666667 1.62179487179487  0.699652777777778 1.69391025641026  0.765625 1.75480769230769  C 0.831597222222222 1.81570512820513  0.909722222222222 1.84615384615385  1 1.84615384615385  C 1.09027777777778 1.84615384615385  1.16840277777778 1.81570512820513  1.234375 1.75480769230769  Z M 7.13020833333333 4.73798076923077  C 7.265625 4.61458333333333  7.33333333333333 4.47115384615385  7.33333333333333 4.30769230769231  C 7.33333333333333 4.19551282051282  7.29600694444445 4.06570512820513  7.22135416666667 3.91826923076923  C 7.14670138888889 3.77083333333333  7.05381944444445 3.69551282051282  6.94270833333333 3.69230769230769  C 6.99479166666667 3.63782051282051  7.03819444444445 3.56169871794872  7.07291666666667 3.46394230769231  C 7.10763888888889 3.3661858974359  7.125 3.27724358974359  7.125 3.19711538461539  C 7.125 2.97596153846154  7.03298611111111 2.78525641025641  6.84895833333333 2.625  C 6.91145833333333 2.52564102564103  6.94270833333333 2.4150641025641  6.94270833333333 2.29326923076923  C 6.94270833333333 2.17467948717949  6.91232638888889 2.05689102564103  6.8515625 1.93990384615385  C 6.79079861111111 1.82291666666667  6.70833333333333 1.73878205128205  6.60416666666667 1.6875  C 6.62152777777778 1.59134615384615  6.63020833333333 1.50160256410256  6.63020833333333 1.41826923076923  C 6.63020833333333 1.14583333333333  6.54513888888889 0.943910256410256  6.375 0.8125  C 6.20486111111111 0.681089743589743  5.96875 0.615384615384615  5.66666666666667 0.615384615384615  L 5 0.615384615384615  C 4.54513888888889 0.615384615384615  3.95138888888889 0.732371794871795  3.21875 0.966346153846154  C 3.20138888888889 0.97275641025641  3.15104166666667 0.989583333333333  3.06770833333333 1.01682692307692  C 2.984375 1.04407051282051  2.92274305555556 1.06410256410256  2.8828125 1.07692307692308  C 2.84288194444444 1.08974358974359  2.78211805555556 1.10817307692308  2.70052083333333 1.13221153846154  C 2.61892361111111 1.15625  2.55295138888889 1.1738782051282  2.50260416666667 1.18509615384615  C 2.45225694444444 1.1963141025641  2.39496527777778 1.20673076923077  2.33072916666667 1.21634615384615  C 2.26649305555556 1.22596153846154  2.21180555555556 1.23076923076923  2.16666666666667 1.23076923076923  L 2 1.23076923076923  L 2 4.30769230769231  L 2.16666666666667 4.30769230769231  C 2.22222222222222 4.30769230769231  2.28385416666667 4.32211538461539  2.3515625 4.35096153846154  C 2.41927083333333 4.37980769230769  2.48871527777778 4.42307692307692  2.55989583333333 4.48076923076923  C 2.63107638888889 4.53846153846154  2.69791666666667 4.59535256410256  2.76041666666667 4.65144230769231  C 2.82291666666667 4.70753205128205  2.89236111111111 4.77804487179487  2.96875 4.86298076923077  C 3.04513888888889 4.94791666666667  3.10503472222222 5.01602564102564  3.1484375 5.06730769230769  C 3.19184027777778 5.11858974358974  3.24652777777778 5.18429487179487  3.3125 5.26442307692308  C 3.37847222222222 5.34455128205128  3.41840277777778 5.3926282051282  3.43229166666667 5.40865384615385  C 3.62326388888889 5.62660256410256  3.75694444444444 5.7724358974359  3.83333333333333 5.84615384615385  C 3.97569444444445 5.98397435897436  4.07899305555556 6.15945512820513  4.14322916666667 6.37259615384615  C 4.20746527777778 6.58573717948718  4.26041666666667 6.78685897435897  4.30208333333333 6.97596153846154  C 4.34375 7.1650641025641  4.40972222222222 7.30128205128205  4.5 7.38461538461539  C 4.83333333333333 7.38461538461539  5.05555555555556 7.30929487179487  5.16666666666667 7.15865384615385  C 5.27777777777778 7.00801282051282  5.33333333333333 6.77564102564103  5.33333333333333 6.46153846153846  C 5.33333333333333 6.2724358974359  5.25 6.01522435897436  5.08333333333333 5.68990384615385  C 4.91666666666667 5.36458333333333  4.83333333333333 5.10897435897436  4.83333333333333 4.92307692307692  L 6.66666666666667 4.92307692307692  C 6.84027777777778 4.92307692307692  6.99479166666667 4.86137820512821  7.13020833333333 4.73798076923077  Z M 7.74479166666667 3.52884615384615  C 7.91493055555555 3.76282051282051  8 4.02403846153846  8 4.3125  C 8 4.6426282051282  7.86805555555555 4.92948717948718  7.60416666666667 5.17307692307692  C 7.34027777777778 5.41666666666667  7.02777777777778 5.53846153846154  6.66666666666667 5.53846153846154  L 5.75 5.53846153846154  C 5.91666666666667 5.85576923076923  6 6.16346153846154  6 6.46153846153846  C 6 6.83974358974359  5.93923611111111 7.13782051282051  5.81770833333333 7.35576923076923  C 5.69618055555556 7.57692307692308  5.51909722222222 7.73958333333333  5.28645833333333 7.84375  C 5.05381944444445 7.94791666666667  4.79166666666667 8  4.5 8  C 4.32291666666667 8  4.16666666666667 7.94070512820513  4.03125 7.82211538461539  C 3.91319444444444 7.71634615384615  3.81944444444444 7.5849358974359  3.75 7.42788461538462  C 3.68055555555556 7.27083333333333  3.63628472222222 7.12580128205128  3.6171875 6.99278846153846  C 3.59809027777778 6.85977564102564  3.56770833333333 6.72435897435897  3.52604166666667 6.58653846153846  C 3.484375 6.44871794871795  3.43055555555556 6.34615384615385  3.36458333333333 6.27884615384615  C 3.19791666666667 6.11858974358974  3.01215277777778 5.9150641025641  2.80729166666667 5.66826923076923  C 2.45659722222222 5.24839743589744  2.21875 5  2.09375 4.92307692307692  L 0.666666666666667 4.92307692307692  C 0.482638888888889 4.92307692307692  0.325520833333333 4.86298076923077  0.1953125 4.74278846153846  C 0.0651041666666667 4.62259615384615  0 4.4775641025641  0 4.30769230769231  L 0 1.23076923076923  C 0 1.06089743589744  0.0651041666666667 0.915865384615385  0.1953125 0.795673076923077  C 0.325520833333333 0.675480769230769  0.482638888888889 0.615384615384615  0.666666666666667 0.615384615384615  L 2.16666666666667 0.615384615384615  C 2.24305555555556 0.615384615384615  2.48263888888889 0.55128205128205  2.88541666666667 0.423076923076923  C 3.32986111111111 0.282051282051281  3.71701388888889 0.17628205128205  4.046875 0.105769230769231  C 4.37673611111111 0.0352564102564097  4.72395833333333 0  5.08854166666667 0  L 5.671875 0  C 6.15798611111111 0  6.55121527777778 0.126602564102564  6.8515625 0.379807692307693  C 7.15190972222222 0.633012820512819  7.30034722222222 0.979166666666666  7.296875 1.41826923076923  L 7.296875 1.44230769230769  C 7.50520833333333 1.68910256410256  7.609375 1.97435897435897  7.609375 2.29807692307692  C 7.609375 2.36858974358974  7.60416666666667 2.4375  7.59375 2.50480769230769  C 7.72569444444445 2.71955128205128  7.79166666666667 2.95032051282051  7.79166666666667 3.19711538461539  C 7.79166666666667 3.3125  7.77604166666667 3.42307692307692  7.74479166666667 3.52884615384615  Z " fill-rule="nonzero" fill="#000000" stroke="none" transform="matrix(1 0 0 1 712 600 )" />
  </g>
</svg>