<?xml version="1.0" encoding="utf-8"?>
<svg version="1.1" xmlns:xlink="http://www.w3.org/1999/xlink" width="8px" height="20px" xmlns="http://www.w3.org/2000/svg">
  <g transform="matrix(1 0 0 1 -626 -380 )">
    <path d="M 1.234375 16.6947115384615  C 1.30034722222222 16.5424679487179  1.33333333333333 16.3621794871795  1.33333333333333 16.1538461538462  C 1.33333333333333 15.9455128205128  1.30034722222222 15.7652243589744  1.234375 15.6129807692308  C 1.16840277777778 15.4607371794872  1.09027777777778 15.3846153846154  1 15.3846153846154  C 0.909722222222222 15.3846153846154  0.831597222222222 15.4607371794872  0.765625 15.6129807692308  C 0.699652777777778 15.7652243589744  0.666666666666667 15.9455128205128  0.666666666666667 16.1538461538462  C 0.666666666666667 16.3621794871795  0.699652777777778 16.5424679487179  0.765625 16.6947115384615  C 0.831597222222222 16.8469551282051  0.909722222222222 16.9230769230769  1 16.9230769230769  C 1.09027777777778 16.9230769230769  1.16840277777778 16.8469551282051  1.234375 16.6947115384615  Z M 7.22135416666667 10.2043269230769  C 7.29600694444445 9.83573717948718  7.33333333333333 9.51121794871795  7.33333333333333 9.23076923076923  C 7.33333333333333 8.82211538461538  7.265625 8.46354166666666  7.13020833333333 8.15504807692308  C 6.99479166666667 7.84655448717949  6.84027777777778 7.69230769230769  6.66666666666667 7.69230769230769  L 4.83333333333333 7.69230769230769  C 4.83333333333333 7.2275641025641  4.91666666666667 6.58854166666667  5.08333333333333 5.77524038461539  C 5.25 4.9619391025641  5.33333333333333 4.31891025641026  5.33333333333333 3.84615384615385  C 5.33333333333333 3.06089743589743  5.27777777777778 2.47996794871795  5.16666666666667 2.10336538461539  C 5.05555555555556 1.72676282051282  4.83333333333333 1.53846153846154  4.5 1.53846153846154  C 4.40972222222222 1.74679487179487  4.34375 2.08733974358974  4.30208333333333 2.56009615384615  C 4.26041666666667 3.03285256410256  4.20746527777778 3.53565705128205  4.14322916666667 4.06850961538462  C 4.07899305555556 4.60136217948718  3.97569444444445 5.0400641025641  3.83333333333333 5.38461538461539  C 3.75694444444444 5.56891025641026  3.62326388888889 5.93349358974359  3.43229166666667 6.47836538461539  C 3.41840277777778 6.51842948717949  3.37847222222222 6.63862179487179  3.3125 6.83894230769231  C 3.24652777777778 7.03926282051282  3.19184027777778 7.20352564102564  3.1484375 7.33173076923077  C 3.10503472222222 7.4599358974359  3.04513888888889 7.63020833333333  2.96875 7.84254807692308  C 2.89236111111111 8.05488782051282  2.82291666666667 8.23116987179487  2.76041666666667 8.37139423076923  C 2.69791666666667 8.51161858974359  2.63107638888889 8.65384615384615  2.55989583333333 8.79807692307692  C 2.48871527777778 8.94230769230769  2.41927083333333 9.05048076923077  2.3515625 9.12259615384615  C 2.28385416666667 9.19471153846154  2.22222222222222 9.23076923076923  2.16666666666667 9.23076923076923  L 2 9.23076923076923  L 2 16.9230769230769  L 2.16666666666667 16.9230769230769  C 2.21180555555556 16.9230769230769  2.26649305555556 16.9350961538462  2.33072916666667 16.9591346153846  C 2.39496527777778 16.9831730769231  2.45225694444444 17.0092147435897  2.50260416666667 17.0372596153846  C 2.55295138888889 17.0653044871795  2.61892361111111 17.109375  2.70052083333333 17.1694711538462  C 2.78211805555556 17.2295673076923  2.84288194444444 17.275641025641  2.8828125 17.3076923076923  C 2.92274305555556 17.3397435897436  2.984375 17.3898237179487  3.06770833333333 17.4579326923077  C 3.15104166666667 17.5260416666667  3.20138888888889 17.568108974359  3.21875 17.5841346153846  C 3.95138888888889 18.1690705128205  4.54513888888889 18.4615384615385  5 18.4615384615385  L 5.63020833333333 18.4615384615385  C 6.296875 18.4615384615385  6.63020833333333 17.7924679487179  6.63020833333333 16.4543269230769  C 6.63020833333333 16.2459935897436  6.62152777777778 16.0216346153846  6.60416666666667 15.78125  C 6.70833333333333 15.6530448717949  6.79079861111111 15.4427083333333  6.8515625 15.1502403846154  C 6.91232638888889 14.8577724358974  6.94270833333333 14.5633012820513  6.94270833333333 14.2668269230769  C 6.94270833333333 13.9703525641026  6.91145833333333 13.6939102564103  6.84895833333333 13.4375  C 7.03298611111111 13.036858974359  7.125 12.5600961538462  7.125 12.0072115384615  C 7.125 11.806891025641  7.10763888888889 11.5845352564103  7.07291666666667 11.3401442307692  C 7.03819444444445 11.0957532051282  6.99479166666667 10.9054487179487  6.94270833333333 10.7692307692308  C 7.05381944444445 10.7612179487179  7.14670138888889 10.5729166666667  7.22135416666667 10.2043269230769  Z M 7.60416666666667 7.06730769230769  C 7.86805555555555 7.67628205128205  8 8.39342948717949  8 9.21875  C 8 9.93189102564102  7.91493055555555 10.5849358974359  7.74479166666667 11.1778846153846  C 7.77604166666667 11.4423076923077  7.79166666666667 11.71875  7.79166666666667 12.0072115384615  C 7.79166666666667 12.6241987179487  7.72569444444445 13.2011217948718  7.59375 13.7379807692308  C 7.60416666666667 13.90625  7.609375 14.0785256410256  7.609375 14.2548076923077  C 7.609375 15.0641025641026  7.50520833333333 15.7772435897436  7.296875 16.3942307692308  C 7.30034722222222 17.5080128205128  7.15277777777778 18.3874198717949  6.85416666666667 19.0324519230769  C 6.55555555555556 19.677483974359  6.16145833333333 20  5.671875 20  L 5.484375 20  L 5 20  C 4.66666666666667 20  4.33767361111111 19.9098557692308  4.01302083333333 19.7295673076923  C 3.68836805555556 19.5492788461538  3.3125 19.286858974359  2.88541666666667 18.9423076923077  C 2.48263888888889 18.6217948717949  2.24305555555556 18.4615384615385  2.16666666666667 18.4615384615385  L 0.666666666666667 18.4615384615385  C 0.482638888888889 18.4615384615385  0.325520833333333 18.3112980769231  0.1953125 18.0108173076923  C 0.0651041666666667 17.7103365384615  0 17.3477564102564  0 16.9230769230769  L 0 9.23076923076923  C 0 8.80608974358974  0.0651041666666667 8.44350961538462  0.1953125 8.14302884615385  C 0.325520833333333 7.84254807692308  0.482638888888889 7.69230769230769  0.666666666666667 7.69230769230769  L 2.09375 7.69230769230769  C 2.21875 7.5  2.45659722222222 6.87900641025641  2.80729166666667 5.82932692307692  C 3.00868055555556 5.22836538461539  3.19444444444444 4.71554487179487  3.36458333333333 4.29086538461539  C 3.44791666666667 4.09054487179487  3.50954861111111 3.74799679487179  3.54947916666667 3.26322115384615  C 3.58940972222222 2.77844551282051  3.64236111111111 2.27163461538461  3.70833333333333 1.74278846153846  C 3.77430555555556 1.21394230769231  3.88194444444444 0.78125  4.03125 0.444711538461537  C 4.16666666666667 0.148237179487181  4.32291666666667 0  4.5 0  C 4.79166666666667 0  5.05381944444445 0.130208333333335  5.28645833333333 0.390625  C 5.51909722222222 0.651041666666665  5.69618055555556 1.05769230769231  5.81770833333333 1.61057692307692  C 5.93923611111111 2.16346153846154  6 2.90865384615385  6 3.84615384615385  C 6 4.59134615384615  5.91666666666667 5.36057692307692  5.75 6.15384615384615  L 6.66666666666667 6.15384615384615  C 7.02777777777778 6.15384615384615  7.34027777777778 6.45833333333333  7.60416666666667 7.06730769230769  Z " fill-rule="nonzero" fill="#5cb099" stroke="none" transform="matrix(1 0 0 1 626 380 )" />
  </g>
</svg>