<?xml version="1.0" encoding="utf-8"?>
<svg version="1.1" xmlns:xlink="http://www.w3.org/1999/xlink" width="23px" height="27px" xmlns="http://www.w3.org/2000/svg">
  <g transform="matrix(1 0 0 1 -823 -64 )">
    <path d="M 22.421875 11.9403080872914  C 22.8072916666667 12.3446726572529  23 12.8645699614891  23 13.5  C 23 14.1238767650834  22.8072916666667 14.6495507060334  22.421875 15.0770218228498  L 12.25 26.3587933247754  C 11.84375 26.7862644415918  11.3697916666667 27  10.828125 27  C 10.296875 27  9.828125 26.7862644415918  9.421875 26.3587933247754  L 8.25 25.0590500641849  C 7.85416666666667 24.620025673941  7.65625 24.094351732991  7.65625 23.482028241335  C 7.65625 22.8697047496791  7.85416666666667 22.3440308087291  8.25 21.9050064184852  L 12.828125 16.8273427471117  L 1.828125 16.8273427471117  C 1.28645833333333 16.8273427471117  0.846354166666667 16.6107188703466  0.5078125 16.1774711168164  C 0.169270833333333 15.7442233632863  0 15.2214377406932  0 14.6091142490372  L 0 12.3908857509628  C 0 11.7785622593068  0.169270833333333 11.2557766367137  0.5078125 10.8225288831836  C 0.846354166666667 10.3892811296534  1.28645833333333 10.1726572528883  1.828125 10.1726572528883  L 12.828125 10.1726572528883  L 8.25 5.07766367137356  C 7.85416666666667 4.6617458279846  7.65625 4.1418485237484  7.65625 3.51797175866496  C 7.65625 2.89409499358152  7.85416666666667 2.37419768934531  8.25 1.95827984595635  L 9.421875 0.658536585365854  C 9.81770833333333 0.219512195121949  10.2864583333333 0  10.828125 0  C 11.3802083333333 0  11.8541666666667 0.219512195121949  12.25 0.658536585365854  L 22.421875 11.9403080872914  Z " fill-rule="nonzero" fill="#7f7f7f" stroke="none" transform="matrix(1 0 0 1 823 64 )" />
  </g>
</svg>