<?xml version="1.0" encoding="utf-8"?>
<svg version="1.1" xmlns:xlink="http://www.w3.org/1999/xlink" width="63px" height="20px" xmlns="http://www.w3.org/2000/svg">
  <g transform="matrix(1 0 0 1 -680 -571 )">
    <path d="M 681 581  A 9 9 0 0 1 690 572 L 733 572  A 9 9 0 0 1 742 581 A 9 9 0 0 1 733 590 L 690 590  A 9 9 0 0 1 681 581 Z " fill-rule="nonzero" fill="#d7d7d7" stroke="none" />
    <path d="M 680.5 581  A 9.5 9.5 0 0 1 690 571.5 L 733 571.5  A 9.5 9.5 0 0 1 742.5 581 A 9.5 9.5 0 0 1 733 590.5 L 690 590.5  A 9.5 9.5 0 0 1 680.5 581 Z " stroke-width="1" stroke="#f2f2f2" fill="none" stroke-opacity="0.996078431372549" />
  </g>
</svg>