<?xml version="1.0" encoding="utf-8"?>
<svg version="1.1" xmlns:xlink="http://www.w3.org/1999/xlink" width="24px" height="25px" xmlns="http://www.w3.org/2000/svg">
  <g transform="matrix(1 0 0 1 -778 -65 )">
    <path d="M 14.828125 15.4459635416667  C 15.609375 14.6321614583333  16 13.6501736111111  16 12.5  C 16 11.3498263888889  15.609375 10.3678385416667  14.828125 9.55403645833333  C 14.046875 8.740234375  13.1041666666667 8.33333333333333  12 8.33333333333333  C 10.8958333333333 8.33333333333333  9.953125 8.740234375  9.171875 9.55403645833333  C 8.390625 10.3678385416667  8 11.3498263888889  8 12.5  C 8 13.6501736111111  8.390625 14.6321614583333  9.171875 15.4459635416667  C 9.953125 16.259765625  10.8958333333333 16.6666666666667  12 16.6666666666667  C 13.1041666666667 16.6666666666667  14.046875 16.259765625  14.828125 15.4459635416667  Z M 23.875 10.3434244791667  C 23.9583333333333 10.4573567708333  24 10.5848524305556  24 10.7259114583333  L 24 14.3391927083333  C 24 14.4694010416667  23.9583333333333 14.5941840277778  23.875 14.7135416666667  C 23.7916666666667 14.8328993055556  23.6875 14.9034288194444  23.5625 14.9251302083333  L 20.671875 15.380859375  C 20.4739583333333 15.966796875  20.2708333333333 16.4605034722222  20.0625 16.8619791666667  C 20.4270833333333 17.4045138888889  20.984375 18.1532118055556  21.734375 19.1080729166667  C 21.8385416666667 19.23828125  21.890625 19.3739149305556  21.890625 19.5149739583333  C 21.890625 19.6560329861111  21.84375 19.7808159722222  21.75 19.8893229166667  C 21.46875 20.2907986111111  20.953125 20.8767361111111  20.203125 21.6471354166667  C 19.453125 22.4175347222222  18.9635416666667 22.802734375  18.734375 22.802734375  C 18.609375 22.802734375  18.4739583333333 22.75390625  18.328125 22.65625  L 16.171875 20.8984375  C 15.7135416666667 21.1480034722222  15.2395833333333 21.3541666666667  14.75 21.5169270833333  C 14.5833333333333 22.9926215277778  14.4322916666667 24.0017361111111  14.296875 24.5442708333333  C 14.2239583333333 24.8480902777778  14.0364583333333 25  13.734375 25  L 10.265625 25  C 10.1197916666667 25  9.9921875 24.9538845486111  9.8828125 24.8616536458333  C 9.7734375 24.7694227430556  9.71354166666667 24.6527777777778  9.703125 24.51171875  L 9.265625 21.5169270833333  C 8.75520833333333 21.3433159722222  8.28645833333333 21.142578125  7.859375 20.9147135416667  L 5.65625 22.65625  C 5.55208333333333 22.75390625  5.421875 22.802734375  5.265625 22.802734375  C 5.11979166666667 22.802734375  4.98958333333333 22.7430555555556  4.875 22.6236979166667  C 3.5625 21.38671875  2.703125 20.4752604166667  2.296875 19.8893229166667  C 2.22395833333333 19.7808159722222  2.1875 19.6560329861111  2.1875 19.5149739583333  C 2.1875 19.384765625  2.22916666666667 19.2599826388889  2.3125 19.140625  C 2.46875 18.9127604166667  2.734375 18.5519748263889  3.109375 18.0582682291667  C 3.484375 17.5645616319444  3.765625 17.1820746527778  3.953125 16.9108072916667  C 3.671875 16.3682725694444  3.45833333333333 15.8311631944444  3.3125 15.2994791666667  L 0.453125 14.8600260416667  C 0.317708333333333 14.8383246527778  0.208333333333333 14.7705078125  0.125 14.6565755208333  C 0.0416666666666667 14.5426432291667  0 14.4151475694444  0 14.2740885416667  L 0 10.6608072916667  C 0 10.5305989583333  0.0416666666666667 10.4058159722222  0.125 10.2864583333333  C 0.208333333333333 10.1671006944444  0.307291666666667 10.0965711805556  0.421875 10.0748697916667  L 3.328125 9.619140625  C 3.47395833333333 9.12000868055556  3.67708333333333 8.62087673611111  3.9375 8.12174479166667  C 3.52083333333333 7.50325520833333  2.96354166666667 6.75455729166667  2.265625 5.87565104166667  C 2.16145833333333 5.74544270833333  2.109375 5.615234375  2.109375 5.48502604166667  C 2.109375 5.37651909722222  2.15625 5.25173611111111  2.25 5.11067708333333  C 2.52083333333333 4.72005208333333  3.03385416666667 4.13682725694444  3.7890625 3.36100260416667  C 4.54427083333333 2.58517795138889  5.03645833333333 2.197265625  5.265625 2.197265625  C 5.40104166666667 2.197265625  5.53645833333333 2.25151909722222  5.671875 2.36002604166667  L 7.828125 4.1015625  C 8.28645833333333 3.85199652777778  8.76041666666667 3.64583333333333  9.25 3.48307291666667  C 9.41666666666667 2.00737847222222  9.56770833333333 0.998263888888887  9.703125 0.455729166666666  C 9.77604166666667 0.151909722222221  9.96354166666667 0  10.265625 0  L 13.734375 0  C 13.8802083333333 0  14.0078125 0.0461154513888867  14.1171875 0.138346354166666  C 14.2265625 0.230577256944442  14.2864583333333 0.347222222222221  14.296875 0.48828125  L 14.734375 3.48307291666667  C 15.2447916666667 3.65668402777778  15.7135416666667 3.857421875  16.140625 4.08528645833333  L 18.359375 2.34375  C 18.453125 2.24609375  18.578125 2.197265625  18.734375 2.197265625  C 18.8697916666667 2.197265625  19 2.25151909722222  19.125 2.36002604166667  C 20.46875 3.65125868055556  21.328125 4.57356770833333  21.703125 5.126953125  C 21.7760416666667 5.21375868055556  21.8125 5.33311631944444  21.8125 5.48502604166667  C 21.8125 5.615234375  21.7708333333333 5.74001736111111  21.6875 5.859375  C 21.53125 6.08723958333333  21.265625 6.44802517361111  20.890625 6.94173177083333  C 20.515625 7.43543836805556  20.234375 7.81792534722222  20.046875 8.08919270833333  C 20.3177083333333 8.63172743055556  20.53125 9.16341145833333  20.6875 9.68424479166667  L 23.546875 10.1399739583333  C 23.6822916666667 10.1616753472222  23.7916666666667 10.2294921875  23.875 10.3434244791667  Z " fill-rule="nonzero" fill="#7f7f7f" stroke="none" transform="matrix(1 0 0 1 778 65 )" />
  </g>
</svg>