<?xml version="1.0" encoding="utf-8"?>
<svg version="1.1" xmlns:xlink="http://www.w3.org/1999/xlink" width="5px" height="13px" xmlns="http://www.w3.org/2000/svg">
  <g transform="matrix(1 0 0 1 -714 -218 )">
    <path d="M 3.06640625 7.97265625  C 3.32982772435897 7.28776041666667  3.46153846153846 6.46354166666667  3.46153846153846 5.5  C 3.46153846153846 4.53645833333333  3.32982772435897 3.71223958333333  3.06640625 3.02734375  C 2.80298477564103 2.34244791666667  2.48597756410256 2  2.11538461538462 2  C 1.74479166666667 2  1.42778445512821 2.34244791666667  1.16436298076923 3.02734375  C 0.900941506410257 3.71223958333333  0.769230769230769 4.53645833333333  0.769230769230769 5.5  C 0.769230769230769 6.46354166666667  0.900941506410257 7.28776041666667  1.16436298076923 7.97265625  C 1.42778445512821 8.65755208333333  1.74479166666667 9  2.11538461538462 9  C 2.48597756410256 9  2.80298477564103 8.65755208333333  3.06640625 7.97265625  Z M 4.88882211538462 11.296875  C 4.96294070512821 11.4895833333333  5 11.7239583333333  5 12  C 5 12.2708333333333  4.9619391025641 12.5052083333333  4.88581730769231 12.703125  C 4.80969551282051 12.9010416666667  4.71955128205128 13  4.61538461538462 13  C 4.50721153846154 13  4.41706730769231 12.9010416666667  4.34495192307692 12.703125  L 3.31430288461538 10.03125  C 2.95572916666667 10.6770833333333  2.55608974358974 11  2.11538461538462 11  C 1.82892628205128 11  1.55498798076923 10.85546875  1.29356971153846 10.56640625  C 1.03215144230769 10.27734375  0.806790865384615 9.88671875  0.617487980769231 9.39453125  C 0.428185096153846 8.90234375  0.277944711538462 8.31640625  0.166766826923077 7.63671875  C 0.0555889423076923 6.95703125  0 6.24479166666667  0 5.5  C 0 4.75520833333333  0.0555889423076923 4.04296875  0.166766826923077 3.36328125  C 0.277944711538462 2.68359375  0.428185096153846 2.09765625  0.617487980769231 1.60546875  C 0.806790865384615 1.11328125  1.03215144230769 0.72265625  1.29356971153846 0.43359375  C 1.55498798076923 0.14453125  1.82892628205128 0  2.11538461538462 0  C 2.40184294871795 0  2.67578125 0.14453125  2.93719951923077 0.43359375  C 3.19861778846154 0.72265625  3.42397836538462 1.11328125  3.61328125 1.60546875  C 3.80258413461538 2.09765625  3.95282451923077 2.68359375  4.06400240384615 3.36328125  C 4.17518028846154 4.04296875  4.23076923076923 4.75520833333333  4.23076923076923 5.5  C 4.23076923076923 6.64583333333333  4.10657051282051 7.68489583333333  3.85817307692308 8.6171875  L 4.88882211538462 11.296875  Z " fill-rule="nonzero" fill="#aaaaaa" stroke="none" transform="matrix(1 0 0 1 714 218 )" />
  </g>
</svg>