<?xml version="1.0" encoding="utf-8"?>
<svg version="1.1" xmlns:xlink="http://www.w3.org/1999/xlink" width="11px" height="15px" xmlns="http://www.w3.org/2000/svg">
  <g transform="matrix(1 0 0 1 -344 -179 )">
    <path d="M 6.74609375 9.19921875  C 7.32562099358974 8.40895432692308  7.61538461538462 7.45793269230769  7.61538461538462 6.34615384615385  C 7.61538461538462 5.234375  7.32562099358974 4.28335336538462  6.74609375 3.49308894230769  C 6.16656650641026 2.70282451923077  5.46915064102564 2.30769230769231  4.65384615384615 2.30769230769231  C 3.83854166666667 2.30769230769231  3.14112580128205 2.70282451923077  2.56159855769231 3.49308894230769  C 1.98207131410256 4.28335336538462  1.69230769230769 5.234375  1.69230769230769 6.34615384615385  C 1.69230769230769 7.45793269230769  1.98207131410256 8.40895432692308  2.56159855769231 9.19921875  C 3.14112580128205 9.98948317307692  3.83854166666667 10.3846153846154  4.65384615384615 10.3846153846154  C 5.46915064102564 10.3846153846154  6.16656650641026 9.98948317307692  6.74609375 9.19921875  Z M 10.7554086538462 13.0348557692308  C 10.9184695512821 13.2572115384615  11 13.5276442307692  11 13.8461538461538  C 11 14.1586538461538  10.916266025641 14.4290865384615  10.7487980769231 14.6574519230769  C 10.5813301282051 14.8858173076923  10.3830128205128 15  10.1538461538462 15  C 9.91586538461539 15  9.71754807692308 14.8858173076923  9.55889423076923 14.6574519230769  L 7.29146634615385 11.5745192307692  C 6.50260416666667 12.3197115384615  5.62339743589744 12.6923076923077  4.65384615384615 12.6923076923077  C 4.02363782051282 12.6923076923077  3.42097355769231 12.5255408653846  2.84585336538462 12.1920072115385  C 2.27073317307692 11.8584735576923  1.77493990384615 11.4077524038462  1.35847355769231 10.83984375  C 0.942007211538462 10.2719350961538  0.611478365384616 9.59585336538462  0.366887019230769 8.81159855769231  C 0.122295673076923 8.02734375  0 7.20552884615384  0 6.34615384615385  C 0 5.48677884615384  0.122295673076923 4.66496394230769  0.366887019230769 3.88070913461538  C 0.611478365384616 3.09645432692308  0.942007211538462 2.42037259615385  1.35847355769231 1.85246394230769  C 1.77493990384615 1.28455528846154  2.27073317307692 0.833834134615384  2.84585336538462 0.500300480769231  C 3.42097355769231 0.166766826923077  4.02363782051282 0  4.65384615384615 0  C 5.28405448717949 0  5.88671875 0.166766826923077  6.46183894230769 0.500300480769231  C 7.03695913461539 0.833834134615384  7.53275240384615 1.28455528846154  7.94921875 1.85246394230769  C 8.36568509615384 2.42037259615385  8.69621394230769 3.09645432692308  8.94080528846154 3.88070913461538  C 9.18539663461539 4.66496394230769  9.30769230769231 5.48677884615384  9.30769230769231 6.34615384615385  C 9.30769230769231 7.66826923076923  9.03445512820513 8.8671875  8.48798076923077 9.94290865384615  L 10.7554086538462 13.0348557692308  Z " fill-rule="nonzero" fill="#aaaaaa" stroke="none" transform="matrix(1 0 0 1 344 179 )" />
  </g>
</svg>