<?xml version="1.0" encoding="utf-8"?>
<svg version="1.1" xmlns:xlink="http://www.w3.org/1999/xlink" width="19px" height="9px" xmlns="http://www.w3.org/2000/svg">
  <g transform="matrix(1 0 0 1 -297 -181 )">
    <path d="M 18.809619238477 0.927835051546391  C 18.936539746159 1.03092783505154  19 1.14948453608247  19 1.28350515463918  C 19 1.41752577319588  18.936539746159 1.5360824742268  18.809619238477 1.63917525773196  L 9.93787575150301 8.84536082474227  C 9.81095524382098 8.94845360824742  9.66499665998664 9  9.5 9  C 9.33500334001336 9  9.18904475617903 8.94845360824742  9.06212424849699 8.84536082474227  L 0.190380761523046 1.63917525773196  C 0.0634602538410155 1.5360824742268  0 1.41752577319588  0 1.28350515463918  C 0 1.14948453608247  0.0634602538410155 1.03092783505154  0.190380761523046 0.927835051546391  L 1.14228456913828 0.154639175257732  C 1.26920507682031 0.0515463917525761  1.41516366065464 0  1.58016032064128 0  C 1.74515698062792 0  1.89111556446226 0.0515463917525761  2.01803607214429 0.154639175257732  L 9.5 6.2319587628866  L 16.9819639278557 0.154639175257732  C 17.1088844355377 0.0515463917525761  17.2548430193721 0  17.4198396793587 0  C 17.5848363393454 0  17.7307949231797 0.0515463917525761  17.8577154308617 0.154639175257732  L 18.809619238477 0.927835051546391  Z " fill-rule="nonzero" fill="#ffffff" stroke="none" transform="matrix(1 0 0 1 297 181 )" />
  </g>
</svg>