<?xml version="1.0" encoding="utf-8"?>
<svg version="1.1" xmlns:xlink="http://www.w3.org/1999/xlink" width="6px" height="6px" xmlns="http://www.w3.org/2000/svg">
  <g transform="matrix(1 0 0 1 -544 -403 )">
    <path d="M 4.4140625 4.0625  C 4.46354166666667 4.01302083333333  4.48828125 3.953125  4.48828125 3.8828125  C 4.48828125 3.81510416666667  4.46354166666667 3.75651041666667  4.4140625 3.70703125  L 3.70703125 3  L 4.4140625 2.29296875  C 4.46354166666667 2.24348958333333  4.48828125 2.18489583333333  4.48828125 2.1171875  C 4.48828125 2.046875  4.46354166666667 1.98697916666667  4.4140625 1.9375  L 4.0625 1.5859375  C 4.01302083333333 1.53645833333333  3.953125 1.51171875  3.8828125 1.51171875  C 3.81510416666667 1.51171875  3.75651041666667 1.53645833333333  3.70703125 1.5859375  L 3 2.29296875  L 2.29296875 1.5859375  C 2.24348958333333 1.53645833333333  2.18489583333333 1.51171875  2.1171875 1.51171875  C 2.046875 1.51171875  1.98697916666667 1.53645833333333  1.9375 1.5859375  L 1.5859375 1.9375  C 1.53645833333333 1.98697916666667  1.51171875 2.046875  1.51171875 2.1171875  C 1.51171875 2.18489583333333  1.53645833333333 2.24348958333333  1.5859375 2.29296875  L 2.29296875 3  L 1.5859375 3.70703125  C 1.53645833333333 3.75651041666667  1.51171875 3.81510416666667  1.51171875 3.8828125  C 1.51171875 3.953125  1.53645833333333 4.01302083333333  1.5859375 4.0625  L 1.9375 4.4140625  C 1.98697916666667 4.46354166666667  2.046875 4.48828125  2.1171875 4.48828125  C 2.18489583333333 4.48828125  2.24348958333333 4.46354166666667  2.29296875 4.4140625  L 3 3.70703125  L 3.70703125 4.4140625  C 3.75651041666667 4.46354166666667  3.81510416666667 4.48828125  3.8828125 4.48828125  C 3.953125 4.48828125  4.01302083333333 4.46354166666667  4.0625 4.4140625  L 4.4140625 4.0625  Z M 5.59765625 1.494140625  C 5.86588541666667 1.95377604166667  6 2.45572916666667  6 3  C 6 3.54427083333333  5.86588541666667 4.04622395833333  5.59765625 4.505859375  C 5.32942708333333 4.96549479166667  4.96549479166667 5.32942708333333  4.505859375 5.59765625  C 4.04622395833333 5.86588541666667  3.54427083333333 6  3 6  C 2.45572916666667 6  1.95377604166667 5.86588541666667  1.494140625 5.59765625  C 1.03450520833333 5.32942708333333  0.670572916666667 4.96549479166667  0.40234375 4.505859375  C 0.134114583333333 4.04622395833333  0 3.54427083333333  0 3  C 0 2.45572916666667  0.134114583333333 1.95377604166667  0.40234375 1.494140625  C 0.670572916666667 1.03450520833333  1.03450520833333 0.670572916666666  1.494140625 0.40234375  C 1.95377604166667 0.134114583333333  2.45572916666667 0  3 0  C 3.54427083333333 0  4.04622395833333 0.134114583333333  4.505859375 0.40234375  C 4.96549479166667 0.670572916666666  5.32942708333333 1.03450520833333  5.59765625 1.494140625  Z " fill-rule="nonzero" fill="#000000" stroke="none" transform="matrix(1 0 0 1 544 403 )" />
  </g>
</svg>