<?xml version="1.0" encoding="utf-8"?>
<svg version="1.1" xmlns:xlink="http://www.w3.org/1999/xlink" width="102px" height="94px" xmlns="http://www.w3.org/2000/svg">
  <g transform="matrix(1 0 0 1 -656 -368 )">
    <path d="M 707 368  C 735.56 368  758 388.68  758 415  C 758 441.32  735.56 462  707 462  C 678.44 462  656 441.32  656 415  C 656 388.68  678.44 368  707 368  Z " fill-rule="nonzero" fill="#ffffff" stroke="none" />
    <path d="M 707 368.5  C 735.28 368.5  757.5 388.96  757.5 415  C 757.5 441.04  735.28 461.5  707 461.5  C 678.72 461.5  656.5 441.04  656.5 415  C 656.5 388.96  678.72 368.5  707 368.5  Z " stroke-width="1" stroke="#ffffff" fill="none" />
  </g>
</svg>