<?xml version="1.0" encoding="utf-8"?>
<svg version="1.1" xmlns:xlink="http://www.w3.org/1999/xlink" width="74px" height="72px" xmlns="http://www.w3.org/2000/svg">
  <g transform="matrix(1 0 0 1 -341 -292 )">
    <path d="M 69.0377604166667 17.9296875  C 72.3459201388889 23.4453125  74 29.46875  74 36  C 74 42.53125  72.3459201388889 48.5546875  69.0377604166667 54.0703125  C 65.7296006944445 59.5859375  61.2411024305556 63.953125  55.572265625 67.171875  C 49.9034288194445 70.390625  43.7126736111111 72  37 72  C 30.2873263888889 72  24.0965711805556 70.390625  18.427734375 67.171875  C 12.7588975694444 63.953125  8.27039930555556 59.5859375  4.96223958333333 54.0703125  C 1.65407986111111 48.5546875  0 42.53125  0 36  C 0 29.46875  1.65407986111111 23.4453125  4.96223958333333 17.9296875  C 8.27039930555556 12.4140625  12.7588975694444 8.04687499999999  18.427734375 4.828125  C 24.0965711805556 1.60937499999999  30.2873263888889 0  37 0  C 43.7126736111111 0  49.9034288194445 1.60937499999999  55.572265625 4.828125  C 61.2411024305556 8.04687499999999  65.7296006944445 12.4140625  69.0377604166667 17.9296875  Z " fill-rule="nonzero" fill="#008690" stroke="none" transform="matrix(1 0 0 1 341 292 )" />
  </g>
</svg>