<?xml version="1.0" encoding="utf-8"?>
<svg version="1.1" xmlns:xlink="http://www.w3.org/1999/xlink" width="8px" height="7px" xmlns="http://www.w3.org/2000/svg">
  <g transform="matrix(1 0 0 1 -448 -420 )">
    <path d="M 7.46354166666667 1.7431640625  C 7.82118055555555 2.27940538194444  8 2.86501736111111  8 3.5  C 8 4.13498263888889  7.82118055555555 4.72059461805555  7.46354166666667 5.2568359375  C 7.10590277777778 5.79307725694444  6.62065972222222 6.21766493055556  6.0078125 6.53059895833333  C 5.39496527777778 6.84353298611111  4.72569444444444 7  4 7  C 3.27430555555556 7  2.60503472222222 6.84353298611111  1.9921875 6.53059895833333  C 1.37934027777778 6.21766493055556  0.894097222222222 5.79307725694444  0.536458333333333 5.2568359375  C 0.178819444444444 4.72059461805555  0 4.13498263888889  0 3.5  C 0 2.86501736111111  0.178819444444444 2.27940538194444  0.536458333333333 1.7431640625  C 0.894097222222222 1.20692274305556  1.37934027777778 0.782335069444444  1.9921875 0.469401041666666  C 2.60503472222222 0.156467013888888  3.27430555555556 0  4 0  C 4.72569444444444 0  5.39496527777778 0.156467013888888  6.0078125 0.469401041666666  C 6.62065972222222 0.782335069444444  7.10590277777778 1.20692274305556  7.46354166666667 1.7431640625  Z " fill-rule="nonzero" fill="#008690" stroke="none" transform="matrix(1 0 0 1 448 420 )" />
  </g>
</svg>