<?xml version="1.0" encoding="utf-8"?>
<svg version="1.1" xmlns:xlink="http://www.w3.org/1999/xlink" width="23px" height="22px" xmlns="http://www.w3.org/2000/svg">
  <defs>
    <mask fill="white" id="clip12">
      <path d="M 8.76190476190476 22  C 3.85523809523808 22  0 17.16  0 11  C 0 4.83999999999998  3.85523809523808 0  8.76190476190476 0  L 8.99531615925057 0  L 12.5862607338017 0  L 14.2380952380952 0  C 19.1447619047619 0  23 4.83999999999998  23 11  C 23 17.16  19.1447619047619 22  14.2380952380952 22  L 8.76190476190476 22  Z " fill-rule="evenodd" />
    </mask>
  </defs>
  <g transform="matrix(1 0 0 1 -508 -523 )">
    <path d="M 8.76190476190476 22  C 3.85523809523808 22  0 17.16  0 11  C 0 4.83999999999998  3.85523809523808 0  8.76190476190476 0  L 8.99531615925057 0  L 12.5862607338017 0  L 14.2380952380952 0  C 19.1447619047619 0  23 4.83999999999998  23 11  C 23 17.16  19.1447619047619 22  14.2380952380952 22  L 8.76190476190476 22  Z " fill-rule="nonzero" fill="#aaaaaa" stroke="none" transform="matrix(1 0 0 1 508 523 )" />
    <path d="M 8.76190476190476 22  C 3.85523809523808 22  0 17.16  0 11  C 0 4.83999999999998  3.85523809523808 0  8.76190476190476 0  L 8.99531615925057 0  L 12.5862607338017 0  L 14.2380952380952 0  C 19.1447619047619 0  23 4.83999999999998  23 11  C 23 17.16  19.1447619047619 22  14.2380952380952 22  L 8.76190476190476 22  Z " stroke-width="2" stroke="#aaaaaa" fill="none" transform="matrix(1 0 0 1 508 523 )" mask="url(#clip12)" />
  </g>
</svg>