<?xml version="1.0" encoding="utf-8"?>
<svg version="1.1" xmlns:xlink="http://www.w3.org/1999/xlink" width="188px" height="38px" xmlns="http://www.w3.org/2000/svg">
  <defs>
    <mask fill="white" id="clip30">
      <path d="M 0 38  L 0 0  L 188 0  L 188 38  L 69.2857142857143 38  L 59.7619047619048 38  L 0 38  Z " fill-rule="evenodd" />
    </mask>
  </defs>
  <g transform="matrix(1 0 0 1 -403 -102 )">
    <path d="M 0 38  L 0 0  L 188 0  L 188 38  L 69.2857142857143 38  L 59.7619047619048 38  L 0 38  Z " fill-rule="nonzero" fill="#f2f2f2" stroke="none" transform="matrix(1 0 0 1 403 102 )" />
    <path d="M 0 38  L 0 0  L 188 0  L 188 38  L 69.2857142857143 38  L 59.7619047619048 38  L 0 38  Z " stroke-width="2" stroke="#f2f2f2" fill="none" transform="matrix(1 0 0 1 403 102 )" mask="url(#clip30)" />
  </g>
</svg>