<?xml version="1.0" encoding="utf-8"?>
<svg version="1.1" xmlns:xlink="http://www.w3.org/1999/xlink" width="32px" height="33px" xmlns="http://www.w3.org/2000/svg">
  <g transform="matrix(1 0 0 1 -362 -789 )">
    <path d="M 378 789.5  C 386.68 789.5  393.5 796.54  393.5 805.5  C 393.5 814.46  386.68 821.5  378 821.5  C 369.32 821.5  362.5 814.46  362.5 805.5  C 362.5 796.54  369.32 789.5  378 789.5  Z " fill-rule="nonzero" fill="#f2f2f2" stroke="none" fill-opacity="0.996078431372549" />
    <path d="M 378 789.5  C 386.68 789.5  393.5 796.54  393.5 805.5  C 393.5 814.46  386.68 821.5  378 821.5  C 369.32 821.5  362.5 814.46  362.5 805.5  C 362.5 796.54  369.32 789.5  378 789.5  Z " stroke-width="1" stroke="#f2f2f2" fill="none" stroke-opacity="0.996078431372549" />
  </g>
</svg>