<?xml version="1.0" encoding="utf-8"?>
<svg version="1.1" xmlns:xlink="http://www.w3.org/1999/xlink" width="60px" height="25px" xmlns="http://www.w3.org/2000/svg">
  <defs>
    <mask fill="white" id="clip33">
      <path d="M 0 20  L 0 5  C 0 2.19999999999999  2.09523809523814 0  4.76190476190476 0  L 37.7324263038549 0  L 55.2380952380952 0  C 57.9047619047619 0  60 2.19999999999999  60 5  L 60 20  C 60 22.8  57.9047619047619 25  55.2380952380952 25  L 4.76190476190476 25  C 2.09523809523814 25  0 22.8  0 20  Z " fill-rule="evenodd" />
    </mask>
  </defs>
  <g transform="matrix(1 0 0 1 -665 -380 )">
    <path d="M 0 20  L 0 5  C 0 2.19999999999999  2.09523809523814 0  4.76190476190476 0  L 37.7324263038549 0  L 55.2380952380952 0  C 57.9047619047619 0  60 2.19999999999999  60 5  L 60 20  C 60 22.8  57.9047619047619 25  55.2380952380952 25  L 4.76190476190476 25  C 2.09523809523814 25  0 22.8  0 20  Z " fill-rule="nonzero" fill="#d7d7d7" stroke="none" transform="matrix(1 0 0 1 665 380 )" />
    <path d="M 0 20  L 0 5  C 0 2.19999999999999  2.09523809523814 0  4.76190476190476 0  L 37.7324263038549 0  L 55.2380952380952 0  C 57.9047619047619 0  60 2.19999999999999  60 5  L 60 20  C 60 22.8  57.9047619047619 25  55.2380952380952 25  L 4.76190476190476 25  C 2.09523809523814 25  0 22.8  0 20  Z " stroke-width="2" stroke="#ffffff" fill="none" transform="matrix(1 0 0 1 665 380 )" mask="url(#clip33)" />
  </g>
</svg>